# xmcd
# 
# Track frame offsets:
#     150
#     16564
#     30926
#     45542
#     62310
#     73262
#     92988
#     108386
#     131815
#     145050
#     153456
#     168189
#     182305
#     197813
#     211238
# 
# Disc length: 3019
# 
# Revision: 1
# Processed by: cddbd v1.5.2PL0 Copyright (c) Steve Scherf et al.
# Submitted via: fre:ac v1.0.17
# 
DISCID=bf0bc90f
DTITLE=Gal Costa - Gal Revisitada
DYEAR=2003
DGENRE=MPB
TTITLE0=Minha Voz, Minha Vida
TTITLE1=Candeias
TTITLE2=Nao Identificado
TTITLE3=Que Pena
TTITLE4=Sebastiana
TTITLE5=Hotel das Estrelas
TTITLE6=Sua Estupidez
TTITLE7=Falsa Baiana
TTITLE8=Presente Cotidiano
TTITLE9=Canção que Morre no Ar
TTITLE10=Só Louco
TTITLE11=Olhos Verdes
TTITLE12=Folhetim
TTITLE13=Faceira
TTITLE14=Meu Nome É Gal
EXTD=
EXTT0=
EXTT1=
EXTT2=
EXTT3=
EXTT4=
EXTT5=
EXTT6=
EXTT7=
EXTT8=
EXTT9=
EXTT10=
EXTT11=
EXTT12=
EXTT13=
EXTT14=
PLAYORDER=
